<svg width="110" height="30" viewBox="0 0 110 30" fill="none" xmlns="http://www.w3.org/2000/svg">
<g clip-path="url(#clip0_41_1396)">
<path d="M104 0H6C2.68629 0 0 2.68629 0 6V24C0 27.3137 2.68629 30 6 30H104C107.314 30 110 27.3137 110 24V6C110 2.68629 107.314 0 104 0Z" fill="#1B1B1B"/>
<path fill-rule="evenodd" clip-rule="evenodd" d="M34.6377 10.9267C35.4459 10.9787 36.2529 10.8089 36.9717 10.4358C37.6904 10.0628 38.2937 9.50054 38.7163 8.80976C39.2671 8.02842 39.5292 7.07996 39.4577 6.12668C39.3987 5.58514 39.2219 5.39711 38.9276 5.56258C38.1871 5.97464 37.3667 6.22231 36.5219 6.28873C35.621 6.40648 34.7117 6.44766 33.8039 6.41181C33.0177 6.37078 31.8051 6.27642 30.1665 6.12873C28.5279 5.98104 27.3925 5.89078 26.7604 5.85796C26.307 5.82377 25.8843 5.80326 25.4921 5.79642C25.1 5.78959 24.4387 5.8142 23.508 5.87027C22.6708 5.91511 21.8385 6.02623 21.0188 6.20258C20.2117 6.39478 19.4296 6.67975 18.6881 7.05181C17.9315 7.40167 17.2581 7.90863 16.7127 8.53898C15.9624 9.36976 15.525 10.436 15.4757 11.5544C15.4148 12.0701 15.4864 12.5927 15.6839 13.073C15.8813 13.5533 16.198 13.9752 16.604 14.299C17.2535 14.8055 18.0567 15.0749 18.8804 15.0621C19.6426 15.0814 20.4004 14.9387 21.1034 14.6435C21.6384 14.4207 22.1292 14.1039 22.5527 13.7082C22.7702 13.5083 22.9497 13.2706 23.0824 13.0067C23.1166 12.9512 23.1348 12.8873 23.1348 12.8221C23.1348 12.7569 23.1166 12.6929 23.0824 12.6374C22.9711 12.5255 22.851 12.4227 22.7234 12.3297C22.5644 12.2128 22.4339 12.0613 22.3419 11.8867C22.1823 11.6435 22.1246 11.3473 22.1814 11.0621C22.2295 10.6644 22.3544 10.2798 22.5491 9.92976C22.7983 9.50307 23.1689 9.16028 23.6137 8.94514C24.171 8.66255 24.7953 8.53838 25.4183 8.58617H25.4429L22.4332 18.0149C21.8499 19.8365 21.907 21.3833 22.6045 22.6554C23.3019 23.9275 24.6419 24.6126 26.6245 24.7107C27.5982 24.7624 28.5732 24.6373 29.5024 24.3415C30.3419 24.0906 31.131 23.695 31.8342 23.1723C32.3896 22.7535 32.9047 22.2837 33.3727 21.7693C33.7119 21.4047 33.9987 20.9946 34.2245 20.5507C34.2917 20.4625 34.3387 20.3605 34.3619 20.2519C34.385 20.1435 34.3838 20.0311 34.3583 19.9231C34.2917 19.8 34.1207 19.8123 33.8455 19.96C32.9352 20.4403 31.9444 20.749 30.9224 20.8707C30.0417 21.0302 29.133 20.8915 28.3398 20.4769C27.6695 20.0831 27.4727 19.4266 27.7496 18.5077C27.7527 18.4913 27.9407 17.9005 28.3137 16.7354H32.3757C32.4147 16.7415 32.4546 16.732 32.4866 16.709C32.5187 16.6859 32.5404 16.6513 32.547 16.6123L33.3445 14.1507L33.3542 14.0995L33.2455 14.0256H29.1835C29.2901 13.7303 29.4995 13.0944 29.8117 12.1179C30.1237 11.1415 30.3429 10.4564 30.4691 10.0626C31.8147 10.5323 33.2164 10.8228 34.6377 10.9267ZM43.7517 17.0318C43.7539 17.02 43.7536 17.0079 43.7506 16.9963C43.7477 16.9846 43.7423 16.9737 43.7348 16.9645C43.7273 16.955 43.7179 16.9475 43.7071 16.9421C43.6964 16.9367 43.6847 16.9337 43.6727 16.9334H36.3588C36.3207 16.9321 36.2832 16.9435 36.2523 16.9657C36.2212 16.988 36.1985 17.0199 36.1876 17.0564L35.506 19.1734L35.6086 19.2718H42.9445C42.9692 19.2765 42.9947 19.2715 43.0158 19.2577C43.0368 19.2439 43.0517 19.2225 43.0573 19.1979L43.7517 17.0318ZM64.0593 19.321L65.2716 15.4805C65.6679 14.2839 65.6563 13.3075 65.2367 12.5513C65.038 12.1856 64.7386 11.8846 64.3739 11.6841C64.0092 11.4835 63.5946 11.3919 63.1793 11.42C62.3197 11.454 61.4817 11.6992 60.7393 12.1338C59.7584 12.6906 58.9037 13.445 58.2296 14.3493C58.2941 13.9765 58.2824 13.5946 58.1951 13.2265C58.1077 12.8584 57.9468 12.5118 57.7219 12.2077C57.4987 11.9439 57.2173 11.7355 56.8999 11.5988C56.5825 11.4622 56.2377 11.4009 55.8927 11.42C55.0494 11.4534 54.2266 11.6899 53.4942 12.1092C52.528 12.6447 51.6827 13.3737 51.0111 14.2507C51.0828 13.8888 51.0757 13.5157 50.9902 13.1568C50.9047 12.7978 50.7428 12.4615 50.5157 12.1708C50.2647 11.9091 49.9589 11.7061 49.6203 11.5763C49.2816 11.4465 48.9185 11.3931 48.5567 11.42C47.8384 11.4365 47.1346 11.6265 46.5055 11.9738C45.9212 12.2359 45.4167 12.6477 45.0429 13.1677C45.0207 13.1889 45.0036 13.2148 44.9926 13.2434C44.9816 13.2721 44.9771 13.3028 44.9794 13.3334C44.9817 13.364 44.9907 13.3937 45.0059 13.4204C45.021 13.4471 45.0419 13.4701 45.067 13.4877C45.174 13.5697 45.3086 13.6805 45.4707 13.82C45.5704 13.9547 45.6425 14.1077 45.6827 14.2705C45.7231 14.433 45.7307 14.6021 45.7055 14.7677C45.6555 15.497 45.5117 16.2167 45.2777 16.9093C44.927 18.0415 44.1016 20.4786 42.8014 24.2205L42.7921 24.2718L42.848 24.3431H47.7947C47.8301 24.3271 47.8633 24.3064 47.8932 24.2815C47.9198 24.2597 47.938 24.2293 47.9445 24.1954L50.0363 17.5979C50.2557 16.9102 50.5971 16.2675 51.0439 15.7005C51.5947 15.0605 52.0756 14.7815 52.4865 14.8635C52.9464 14.9456 53.0346 15.4215 52.7511 16.2913C52.5067 17.1282 52.328 17.7107 52.2152 18.039C51.8604 19.1056 51.2147 21.1654 50.2783 24.2179C50.2737 24.2201 50.2696 24.2234 50.2665 24.2274C50.2633 24.2315 50.2612 24.2362 50.2604 24.2412C50.2595 24.2462 50.2597 24.2514 50.2613 24.2563C50.2628 24.2612 50.2655 24.2655 50.2691 24.2693L50.3317 24.3431H55.2819C55.3172 24.3271 55.3501 24.3064 55.3798 24.2815C55.4063 24.2595 55.4244 24.2291 55.4311 24.1954L57.1906 18.0415L57.3255 17.5985C57.5268 16.9033 57.8699 16.2573 58.3332 15.701C58.8839 15.061 59.3648 14.7821 59.7757 14.8641C60.2356 14.9462 60.3237 15.4221 60.0404 16.2918L58.5235 21.0677C58.1727 22.2 58.239 23.106 58.7224 23.7856C58.9817 24.1314 59.3237 24.4062 59.7173 24.5846C60.1107 24.7633 60.5428 24.8397 60.9737 24.8072C61.6921 24.7906 62.3959 24.6006 63.0249 24.2534C63.6028 23.9947 64.1047 23.5922 64.4824 23.0841C64.5221 23.0502 64.5473 23.0023 64.5529 22.9504C64.5586 22.8985 64.5441 22.8463 64.5126 22.8046C64.418 22.712 64.3076 22.637 64.1865 22.5831C64.0128 22.4827 63.8781 22.3265 63.8045 22.14C63.685 21.8263 63.6366 21.4901 63.6629 21.1554C63.7129 20.5293 63.8455 19.9125 64.0573 19.321H64.0593ZM79.4439 18.6318C80.0331 16.7775 79.8869 15.1609 79.0055 13.7821C78.1239 12.4033 76.7116 11.6402 74.769 11.4928C72.8152 11.3688 70.8803 11.9351 69.3013 13.0928C67.669 14.1781 66.4515 15.783 65.846 17.6472C65.2563 19.5015 65.4064 21.1182 66.2963 22.4969C67.1859 23.8757 68.6013 24.6388 70.5418 24.7862C72.5024 24.9218 74.4475 24.3586 76.0321 23.1964C77.6469 22.0987 78.8475 20.4917 79.4418 18.6318H79.4439ZM70.6316 17.9918C70.9285 16.9966 71.4013 16.0629 72.028 15.2349C72.23 14.9261 72.5069 14.6737 72.8331 14.5015C73.1593 14.3293 73.5239 14.2427 73.8926 14.2503C74.2034 14.2642 74.4972 14.3973 74.7126 14.6218C74.928 14.8464 75.049 15.1453 75.05 15.4565C75.1321 16.4174 74.9993 17.3845 74.6608 18.2877C74.3696 19.2911 73.8993 20.2335 73.2721 21.0693C73.0711 21.3727 72.7962 21.6201 72.4731 21.788C72.15 21.9559 71.79 22.039 71.4259 22.0293C71.1137 22.0139 70.8193 21.8787 70.6039 21.6517C70.389 21.4247 70.2696 21.1235 70.2711 20.8107C70.1859 19.8563 70.308 18.8946 70.6296 17.9918H70.6316ZM92.7372 19.321C92.95 18.6482 93.1869 17.9132 93.4475 17.1159C93.708 16.3186 93.8834 15.773 93.9741 15.479C94.3541 14.2825 94.3341 13.306 93.9146 12.5497C93.7162 12.1838 93.4167 11.8825 93.0521 11.6818C92.6875 11.481 92.2726 11.3893 91.8572 11.4174C90.9849 11.4536 90.1331 11.6939 89.37 12.119C88.3675 12.6559 87.4896 13.3982 86.7937 14.2975C86.8716 13.9325 86.868 13.5548 86.7834 13.1914C86.6987 12.8279 86.5347 12.4877 86.3034 12.1949C86.0516 11.9271 85.7434 11.7186 85.4008 11.5845C85.0587 11.4504 84.6906 11.3941 84.3239 11.4195C83.6055 11.4358 82.9018 11.6259 82.2726 11.9733C81.6885 12.2352 81.1839 12.6471 80.81 13.1672C80.7762 13.2032 80.7557 13.2502 80.7531 13.2997C80.75 13.3493 80.7649 13.3983 80.7947 13.4379C80.8777 13.5203 80.9716 13.5907 81.0741 13.6472C81.2259 13.7563 81.3383 13.9118 81.3941 14.0903C81.4937 14.4085 81.5285 14.7431 81.4967 15.0749C81.4377 15.7005 81.3018 16.3165 81.0916 16.9087C80.7244 18.041 79.8828 20.4781 78.5665 24.22C78.5618 24.233 78.5603 24.2467 78.5618 24.2605C78.5634 24.2741 78.5675 24.2873 78.5746 24.299C78.5818 24.3107 78.5916 24.3208 78.6028 24.3285C78.6141 24.3361 78.6275 24.3411 78.6408 24.3431H83.5639C83.6024 24.3389 83.6382 24.3221 83.6659 24.2954C83.6937 24.2687 83.7121 24.2335 83.7177 24.1954L85.8096 17.5979C86.0296 16.9094 86.3869 16.2727 86.8613 15.7272C87.448 15.0707 87.9716 14.7835 88.4316 14.8656C88.908 14.9477 89.0126 15.4235 88.7455 16.2934L87.229 21.0693C86.8613 22.2015 86.9193 23.1075 87.4028 23.7872C87.6624 24.1328 88.0044 24.4075 88.3977 24.5862C88.7911 24.7646 89.2234 24.8413 89.6541 24.8087C90.3726 24.7922 91.0762 24.6022 91.7054 24.2549C92.2869 23.9913 92.7957 23.59 93.1875 23.0856C93.2218 23.047 93.2408 22.9975 93.2418 22.946C93.2424 22.8945 93.2249 22.8444 93.1921 22.8046C93.0972 22.712 92.9869 22.637 92.8659 22.5831C92.6926 22.4826 92.5582 22.3265 92.4844 22.14C92.3644 21.8265 92.3162 21.4901 92.3428 21.1554C92.3921 20.5293 92.5239 19.9125 92.7352 19.321H92.7372Z" fill="white"/>
</g>
<defs>
<clipPath id="clip0_41_1396">
<rect width="110" height="30" fill="white"/>
</clipPath>
</defs>
</svg>
