<svg width="348" height="78" viewBox="0 0 348 78" fill="none" xmlns="http://www.w3.org/2000/svg">
<g filter="url(#filter0_d_1992_8190)">
<rect x="6" y="3.00977" width="144.578" height="62.1982" rx="15.4956" transform="rotate(-5.56091 6 3.00977)" fill="white"/>
<rect x="7.05777" y="3.87984" width="142.641" height="60.2612" rx="14.5272" transform="rotate(-5.56091 7.05777 3.87984)" stroke="#F2814E" stroke-width="1.93695"/>
<g clip-path="url(#clip0_1992_8190)">
<g clip-path="url(#clip1_1992_8190)">
<rect x="22.7734" y="16.9453" width="42.7639" height="31.101" rx="3.88763" transform="rotate(-5.56091 22.7734 16.9453)" fill="white"/>
<path fill-rule="evenodd" clip-rule="evenodd" d="M22.7734 16.9453L41.0146 15.1693L42.421 29.6148L24.1799 31.3908L22.7734 16.9453Z" fill="#1A47B8"/>
<path fill-rule="evenodd" clip-rule="evenodd" d="M41.0146 15.1693L41.2155 17.233L65.537 14.865L65.3361 12.8013L41.0146 15.1693ZM41.4164 19.2966L41.6173 21.3602L65.9388 18.9923L65.7379 16.9286L41.4164 19.2966ZM41.8182 23.4239L42.0192 25.4875L66.3407 23.1195L66.1398 21.0559L41.8182 23.4239ZM42.2201 27.5512L42.421 29.6148L66.7425 27.2468L66.5416 25.1832L42.2201 27.5512ZM24.3808 33.4545L24.5817 35.5181L67.1444 31.3741L66.9434 29.3105L24.3808 33.4545ZM24.7826 37.5817L24.9836 39.6454L67.5462 35.5014L67.3453 33.4378L24.7826 37.5817ZM25.1845 41.709L25.3854 43.7727L67.948 39.6287L67.7471 37.565L25.1845 41.709ZM25.5863 45.8363L25.7872 47.9L68.3499 43.756L68.149 41.6923L25.5863 45.8363Z" fill="#F93939"/>
<path fill-rule="evenodd" clip-rule="evenodd" d="M25.0078 18.8115L25.2087 20.8752L27.2355 20.6778L27.0346 18.6142L25.0078 18.8115ZM29.0614 18.4169L29.2623 20.4805L31.2891 20.2832L31.0882 18.2195L29.0614 18.4169ZM33.115 18.0222L33.3159 20.0858L35.3427 19.8885L35.1418 17.8249L33.115 18.0222ZM37.1686 17.6275L37.3695 19.6912L39.3963 19.4938L39.1954 17.4302L37.1686 17.6275ZM35.3427 19.8885L35.5436 21.9521L37.5704 21.7548L37.3695 19.6912L35.3427 19.8885ZM31.2891 20.2832L31.49 22.3468L33.5168 22.1495L33.3159 20.0858L31.2891 20.2832ZM27.2355 20.6778L27.4364 22.7415L29.4632 22.5441L29.2623 20.4805L27.2355 20.6778ZM25.4097 22.9388L25.6106 25.0025L27.6374 24.8051L27.4364 22.7415L25.4097 22.9388ZM29.4632 22.5441L29.6642 24.6078L31.6909 24.4105L31.49 22.3468L29.4632 22.5441ZM33.5168 22.1495L33.7177 24.2131L35.7445 24.0158L35.5436 21.9521L33.5168 22.1495ZM37.5704 21.7548L37.7713 23.8185L39.7981 23.6211L39.5972 21.5575L37.5704 21.7548ZM25.8115 27.0661L26.0124 29.1297L28.0392 28.9324L27.8383 26.8688L25.8115 27.0661ZM29.8651 26.6714L30.066 28.7351L32.0928 28.5377L31.8919 26.4741L29.8651 26.6714ZM33.9187 26.2768L34.1196 28.3404L36.1464 28.1431L35.9455 26.0794L33.9187 26.2768ZM37.9722 25.8821L38.1732 27.9457L40.2 27.7484L39.999 25.6848L37.9722 25.8821ZM35.7445 24.0158L35.9455 26.0794L37.9722 25.8821L37.7713 23.8185L35.7445 24.0158ZM31.6909 24.4105L31.8919 26.4741L33.9187 26.2768L33.7177 24.2131L31.6909 24.4105ZM27.6374 24.8051L27.8383 26.8688L29.8651 26.6714L29.6642 24.6078L27.6374 24.8051Z" fill="white"/>
</g>
</g>
<path d="M66.5175 39.3201L66.0129 34.1376L66.9372 34.0477C67.2263 33.7523 67.484 33.3471 67.7103 32.8321C67.9366 32.3171 68.1052 31.6349 68.216 30.7856C68.3268 29.9363 68.3554 28.8577 68.3018 27.5499L68.0538 21.5961L76.7003 20.7542L77.8908 32.9812L79.4791 32.8266L79.9816 37.9885L77.9552 38.1858L77.6273 34.8175L68.214 35.734L68.5439 39.1228L66.5175 39.3201ZM69.4291 33.805L75.8644 33.1785L74.8512 22.7725L70.148 23.2305L70.3282 27.3526C70.3653 28.3487 70.3538 29.2483 70.2938 30.0512C70.2383 30.8536 70.1351 31.5686 69.9843 32.196C69.8376 32.8185 69.6525 33.3548 69.4291 33.805ZM86.2568 34.1916C85.271 34.2875 84.3887 34.1454 83.6099 33.7651C82.8311 33.3848 82.199 32.8082 81.7137 32.0354C81.2284 31.2625 80.9329 30.333 80.8272 29.2468C80.721 28.156 80.8312 27.1823 81.1578 26.3258C81.4845 25.4693 81.9932 24.7794 82.684 24.256C83.3749 23.7326 84.2132 23.4229 85.199 23.3269C86.1848 23.231 87.0671 23.3731 87.8459 23.7534C88.6247 24.1337 89.257 24.7126 89.7427 25.49C90.2285 26.2674 90.5244 27.2015 90.6307 28.2923C90.7364 29.3785 90.6257 30.3476 90.2986 31.1995C89.9715 32.0515 89.4626 32.7391 88.7718 33.2625C88.081 33.7859 87.2426 34.0956 86.2568 34.1916ZM86.0963 32.4725C86.7353 32.4103 87.2483 32.1899 87.6353 31.8113C88.0223 31.4327 88.2889 30.9529 88.435 30.372C88.5858 29.7906 88.6283 29.1622 88.5625 28.4867C88.4972 27.8158 88.3345 27.2097 88.0745 26.6683C87.8185 26.1219 87.464 25.698 87.0107 25.3966C86.5575 25.0952 86.0114 24.9756 85.3725 25.0378C84.729 25.1004 84.2116 25.3236 83.8205 25.7072C83.4339 26.0904 83.1655 26.5749 83.0152 27.1609C82.8691 27.7418 82.8287 28.3677 82.894 29.0386C82.9598 29.7141 83.1204 30.3227 83.3758 30.8646C83.6359 31.4059 83.9923 31.8251 84.4451 32.1219C84.9024 32.4183 85.4528 32.5352 86.0963 32.4725ZM92.5944 33.3603L92.4149 31.5878L92.7914 31.5512C93.0835 31.5227 93.3217 31.4373 93.506 31.295C93.6943 31.1477 93.8378 30.9172 93.9362 30.6035C94.0347 30.2898 94.0924 29.8649 94.1093 29.3289C94.1258 28.7882 94.1106 28.1124 94.0639 27.3015L93.7955 22.6282L101.134 21.9136L102.158 32.4291L100.152 32.6244L99.3005 23.8752L95.8638 24.2098L96.0475 27.7994C96.0908 28.6706 96.0756 29.4369 96.0018 30.0983C95.9325 30.7593 95.7912 31.319 95.5778 31.7775C95.364 32.2314 95.0667 32.5851 94.686 32.8387C94.3048 33.0878 93.8267 33.2403 93.2516 33.2963L92.5944 33.3603ZM104.06 32.244L103.88 30.4715L104.257 30.4349C104.549 30.4064 104.787 30.3211 104.971 30.1787C105.16 30.0314 105.303 29.8009 105.402 29.4872C105.5 29.1735 105.558 28.7487 105.575 28.2126C105.591 27.6719 105.576 26.9961 105.529 26.1852L105.261 21.5119L112.6 20.7974L113.624 31.3128L111.618 31.5081L110.766 22.7589L107.329 23.0935L107.513 26.6831C107.556 27.5543 107.541 28.3206 107.467 28.982C107.398 29.643 107.257 30.2027 107.043 30.6612C106.829 31.1151 106.532 31.4688 106.151 31.7224C105.77 31.9715 105.292 32.124 104.717 32.18L104.06 32.244ZM119.436 30.9819C118.77 31.0467 118.156 30.9822 117.593 30.7882C117.03 30.5896 116.568 30.2683 116.207 29.8243C115.85 29.3798 115.638 28.813 115.571 28.1239C115.514 27.5306 115.58 27.0311 115.771 26.6255C115.962 26.2199 116.24 25.8864 116.607 25.625C116.973 25.3636 117.39 25.1525 117.858 24.9917C118.326 24.831 118.806 24.6967 119.298 24.589C119.92 24.4546 120.426 24.3455 120.814 24.2617C121.201 24.1732 121.479 24.0656 121.646 23.9387C121.814 23.8119 121.885 23.6252 121.861 23.3787L121.857 23.3308C121.798 22.7329 121.584 22.2861 121.215 21.9904C120.85 21.6942 120.336 21.5784 119.674 21.6428C118.985 21.7099 118.457 21.9157 118.09 22.2601C117.726 22.5996 117.487 22.9614 117.373 23.3458L115.406 23.095C115.572 22.4338 115.855 21.8856 116.255 21.4504C116.659 21.0103 117.14 20.6732 117.698 20.4392C118.255 20.2006 118.851 20.0505 119.486 19.9887C119.905 19.9478 120.355 19.9547 120.835 20.0094C121.319 20.059 121.779 20.1939 122.215 20.414C122.656 20.6338 123.032 20.9726 123.344 21.4306C123.655 21.8841 123.848 22.4942 123.923 23.2609L124.603 30.2439L122.604 30.4385L122.464 29.0008L122.382 29.0088C122.275 29.2864 122.102 29.5659 121.862 29.8473C121.622 30.1286 121.303 30.374 120.904 30.5833C120.505 30.7926 120.016 30.9254 119.436 30.9819ZM119.721 29.2955C120.287 29.2404 120.76 29.0815 121.14 28.8187C121.524 28.5556 121.804 28.2335 121.979 27.8525C122.158 27.4665 122.227 27.0658 122.187 26.6505L122.055 25.295C121.989 25.3751 121.854 25.4573 121.65 25.5417C121.451 25.621 121.221 25.6964 120.96 25.7678C120.7 25.8346 120.446 25.8985 120.198 25.9595C119.95 26.0159 119.743 26.0637 119.576 26.103C119.184 26.1918 118.83 26.3116 118.513 26.4622C118.2 26.6125 117.957 26.8089 117.782 27.0517C117.612 27.2894 117.544 27.5908 117.58 27.956C117.629 28.4626 117.854 28.8277 118.253 29.0514C118.652 29.2706 119.142 29.3519 119.721 29.2955ZM127.713 33.9217L126.306 19.4629L128.305 19.2683L128.471 20.973L128.642 20.9563C128.739 20.7257 128.886 20.4557 129.081 20.1464C129.277 19.8371 129.563 19.5559 129.939 19.3027C130.315 19.045 130.829 18.8843 131.481 18.8208C132.33 18.7381 133.109 18.8789 133.817 19.243C134.525 19.6072 135.108 20.1747 135.565 20.9456C136.027 21.7161 136.314 22.6696 136.424 23.8061C136.535 24.9425 136.441 25.9354 136.141 26.7846C135.841 27.6293 135.381 28.303 134.762 28.8056C134.142 29.3036 133.408 29.5939 132.559 29.6766C131.92 29.7388 131.387 29.6824 130.96 29.5074C130.538 29.332 130.198 29.1117 129.942 28.8464C129.686 28.581 129.485 28.3426 129.34 28.1309L129.217 28.1429L129.76 33.7224L127.713 33.9217ZM128.823 24.5254C128.895 25.2648 129.066 25.9024 129.334 26.4383C129.603 26.9742 129.956 27.3799 130.393 27.6553C130.829 27.9261 131.342 28.0328 131.931 27.9755C132.542 27.9159 133.037 27.7041 133.417 27.3401C133.795 26.9715 134.062 26.4963 134.218 25.9145C134.378 25.3322 134.423 24.6897 134.355 23.9868C134.287 23.2931 134.122 22.6803 133.858 22.1485C133.599 21.6163 133.246 21.2106 132.8 20.9316C132.358 20.6521 131.829 20.5423 131.213 20.6023C130.619 20.6601 130.132 20.8619 129.751 21.2076C129.375 21.553 129.108 22.0097 128.952 22.5778C128.795 23.146 128.752 23.7951 128.823 24.5254Z" fill="#F2814E"/>
</g>
<g filter="url(#filter1_d_1992_8190)">
<rect x="143.406" y="-9.78125" width="144.578" height="62.1982" rx="15.4956" fill="white"/>
<rect x="144.375" y="-8.81264" width="142.641" height="60.2612" rx="14.5272" stroke="#F2814E" stroke-width="1.93695"/>
<g clip-path="url(#clip2_1992_8190)">
<rect x="164.789" y="5.76172" width="31.119" height="31.119" rx="15.5595" fill="white"/>
<path d="M195.436 25.0876C193.357 33.4228 184.914 38.4944 176.578 36.4146C168.245 34.3354 163.173 25.8916 165.253 17.557C167.332 9.22086 175.775 4.14883 184.109 6.2281C192.444 8.30737 197.516 16.7521 195.436 25.0877L195.436 25.0876L195.436 25.0876Z" fill="#50AF95"/>
<path fill-rule="evenodd" clip-rule="evenodd" d="M182.325 23.0856C182.215 23.0939 181.646 23.1277 180.378 23.1275C179.37 23.1274 178.654 23.097 178.403 23.0851C174.505 22.9131 171.596 22.2342 171.596 21.4219C171.597 20.6096 174.506 19.9325 178.403 19.7588L178.403 22.4094C178.658 22.4278 179.387 22.471 180.396 22.4711C181.606 22.4713 182.212 22.4209 182.321 22.4109L182.322 19.7612C186.211 19.935 189.113 20.6139 189.113 21.4244C189.113 22.2349 186.211 22.9129 182.321 23.0847L182.325 23.0856ZM182.322 19.4865L182.322 17.1147L187.75 17.1154L187.751 13.4985L172.973 13.4964L172.973 17.1133L178.399 17.1141L178.399 19.485C173.988 19.687 170.671 20.5603 170.671 21.6073C170.671 22.6543 173.988 23.5276 178.398 23.7318L178.397 31.3323L182.32 31.3329L182.321 23.7296C186.721 23.5276 190.033 22.6552 190.033 21.6091C190.033 20.563 186.725 19.6897 182.321 19.4856L182.322 19.4865Z" fill="white"/>
</g>
<path d="M206.446 16.57L206.446 14.7403L217.348 14.7419L217.348 16.5715L212.953 16.5709L212.951 28.8282L210.832 28.8279L210.834 16.5706L206.446 16.57ZM222.612 29.0428C221.571 29.0426 220.674 28.8201 219.922 28.3752C219.175 27.9257 218.597 27.2951 218.189 26.4834C217.786 25.6671 217.584 24.711 217.584 23.615C217.584 22.5328 217.786 21.5791 218.19 20.7537C218.598 19.9284 219.167 19.2842 219.896 18.8211C220.63 18.3581 221.487 18.1266 222.469 18.1268C223.065 18.1269 223.643 18.2255 224.202 18.4228C224.761 18.62 225.264 18.9296 225.708 19.3516C226.153 19.7735 226.504 20.3216 226.76 20.9957C227.017 21.6652 227.145 22.4792 227.145 23.4376L227.145 24.1667L218.747 24.1655L218.747 22.6247L225.13 22.6256C225.13 22.0845 225.02 21.6053 224.8 21.188C224.58 20.7661 224.271 20.4336 223.872 20.1905C223.477 19.9474 223.014 19.8258 222.482 19.8257C221.904 19.8257 221.4 19.9677 220.969 20.252C220.542 20.5316 220.212 20.8984 219.978 21.3524C219.749 21.8017 219.634 22.2901 219.634 22.8174L219.634 24.0211C219.634 24.7273 219.758 25.3281 220.005 25.8233C220.257 26.3186 220.608 26.697 221.057 26.9584C221.507 27.2153 222.032 27.3438 222.632 27.3438C223.022 27.3439 223.378 27.2889 223.699 27.1789C224.02 27.0643 224.297 26.8947 224.531 26.67C224.765 26.4454 224.944 26.168 225.068 25.8378L227.014 26.1889C226.858 26.7621 226.578 27.2641 226.175 27.6951C225.776 28.1215 225.274 28.4539 224.668 28.6923C224.068 28.9261 223.382 29.0429 222.612 29.0428ZM234.36 18.266L234.359 19.9168L228.588 19.916L228.589 18.2652L234.36 18.266ZM230.137 15.7342L232.193 15.7345L232.192 25.7288C232.192 26.1277 232.251 26.4281 232.371 26.6299C232.49 26.8271 232.643 26.9624 232.831 27.0358C233.024 27.1046 233.233 27.139 233.457 27.139C233.622 27.139 233.767 27.1276 233.891 27.1047C234.015 27.0818 234.111 27.0635 234.18 27.0497L234.551 28.7487C234.432 28.7946 234.262 28.8404 234.042 28.8862C233.822 28.9366 233.547 28.9641 233.216 28.9686C232.675 28.9777 232.171 28.8814 231.703 28.6795C231.235 28.4777 230.857 28.1658 230.568 27.7439C230.28 27.322 230.135 26.7923 230.135 26.1549L230.137 15.7342ZM238.918 22.5588L238.917 28.8319L236.86 28.8316L236.862 14.7446L238.891 14.7449L238.891 19.9863L239.021 19.9863C239.269 19.4177 239.647 18.9661 240.156 18.6314C240.665 18.2967 241.33 18.1294 242.151 18.1296C242.876 18.1297 243.509 18.2788 244.05 18.5769C244.595 18.8751 245.017 19.3199 245.315 19.9115C245.618 20.4985 245.769 21.2322 245.769 22.1127L245.768 28.8329L243.711 28.8326L243.712 22.36C243.712 21.585 243.513 20.9843 243.114 20.5578C242.715 20.1267 242.16 19.9111 241.449 19.911C240.963 19.9109 240.528 20.014 240.142 20.2203C239.762 20.4266 239.461 20.7292 239.241 21.1281C239.026 21.5225 238.918 21.9993 238.918 22.5588ZM253.066 29.0471C252.025 29.047 251.128 28.8244 250.376 28.3795C249.629 27.93 249.051 27.2994 248.643 26.4877C248.24 25.6714 248.038 24.7153 248.038 23.6194C248.038 22.5372 248.24 21.5834 248.644 20.758C249.052 19.9327 249.621 19.2885 250.35 18.8254C251.084 18.3624 251.941 18.131 252.923 18.1311C253.519 18.1312 254.097 18.2299 254.656 18.4271C255.215 18.6244 255.718 18.934 256.162 19.3559C256.607 19.7778 256.958 20.3259 257.214 21C257.471 21.6695 257.599 22.4835 257.599 23.4419L257.599 24.171L249.201 24.1698L249.201 22.629L255.584 22.6299C255.584 22.0888 255.474 21.6096 255.254 21.1923C255.034 20.7704 254.725 20.4379 254.326 20.1948C253.931 19.9517 253.468 19.8301 252.936 19.8301C252.358 19.83 251.854 19.9721 251.423 20.2563C250.996 20.536 250.666 20.9028 250.432 21.3567C250.203 21.8061 250.088 22.2944 250.088 22.8218L250.088 24.0255C250.088 24.7317 250.212 25.3324 250.459 25.8277C250.711 26.3229 251.062 26.7013 251.511 26.9627C251.961 27.2196 252.486 27.3481 253.087 27.3482C253.476 27.3482 253.832 27.2932 254.153 27.1832C254.474 27.0686 254.751 26.899 254.985 26.6743C255.219 26.4497 255.398 26.1723 255.522 25.8421L257.468 26.1932C257.312 26.7664 257.032 27.2685 256.629 27.6995C256.23 28.1259 255.728 28.4582 255.122 28.6966C254.522 28.9304 253.836 29.0472 253.066 29.0471ZM259.88 28.8349L259.882 18.2697L261.87 18.2699L261.87 19.9483L261.98 19.9483C262.172 19.3797 262.512 18.9326 262.998 18.6071C263.489 18.277 264.043 18.112 264.662 18.1121C264.791 18.1121 264.942 18.1168 265.116 18.1259C265.295 18.1351 265.435 18.1466 265.536 18.1604L265.536 20.1276C265.453 20.1047 265.306 20.0794 265.096 20.0519C264.885 20.0198 264.674 20.0037 264.463 20.0037C263.977 20.0036 263.543 20.1067 263.163 20.313C262.787 20.5147 262.489 20.7967 262.268 21.1589C262.048 21.5166 261.938 21.9247 261.938 22.3832L261.937 28.8351L259.88 28.8349Z" fill="#F2814E"/>
</g>
<g filter="url(#filter2_d_1992_8190)">
<rect x="198.102" y="29.5957" width="128.246" height="67.1518" rx="16.788" transform="rotate(3.41228 198.102 29.5957)" fill="white"/>
<rect x="199.086" y="30.7055" width="126.147" height="65.0533" rx="15.7387" transform="rotate(3.41228 199.086 30.7055)" stroke="#F2814E" stroke-width="2.09849"/>
<g clip-path="url(#clip3_1992_8190)">
<g clip-path="url(#clip4_1992_8190)">
<rect x="213.664" y="47.3408" width="46.0102" height="33.462" rx="4.18275" transform="rotate(3.41228 213.664 47.3408)" fill="#1A47B8"/>
<path d="M255.219 49.8185L218.038 47.6016C215.622 47.4576 213.545 49.3348 213.399 51.7945L211.938 76.2898C211.791 78.7495 213.631 80.8602 216.047 81.0043L253.227 83.2212C255.643 83.3652 257.72 81.488 257.867 79.0283L259.327 54.533C259.474 52.0733 257.634 49.9626 255.219 49.8185Z" fill="#1A47B8"/>
<path d="M229.198 74.751L230.652 74.9169L229.463 75.7715L229.754 77.2064L228.575 76.3397L227.3 77.0601L227.76 75.6699L226.681 74.6801L228.145 74.6882L228.753 73.3568L229.198 74.751ZM222.079 71.1832L223.534 71.3502L222.345 72.2038L222.636 73.6387L221.456 72.772L220.182 73.4924L220.641 72.1022L219.562 71.1134L221.026 71.1205L221.634 69.789L222.079 71.1832ZM236.697 72.0548L238.151 72.2218L236.963 73.0754L237.254 74.5103L236.074 73.6436L234.799 74.3639L235.259 72.9738L234.18 71.985L235.644 71.9921L236.252 70.6606L236.697 72.0548ZM219.387 63.6904L220.841 63.8573L219.652 64.7119L219.944 66.1458L218.764 65.2791L217.489 65.9995L217.948 64.6103L216.87 63.6205L218.334 63.6276L218.942 62.2962L219.387 63.6904ZM240.256 64.9347L241.71 65.1017L240.522 65.9562L240.813 67.3902L239.633 66.5235L238.358 67.2438L238.818 65.8546L237.739 64.8648L239.203 64.8719L239.811 63.5405L240.256 64.9347ZM222.946 56.5693L224.4 56.7352L223.212 57.5898L223.503 59.0247L222.323 58.158L221.048 58.8784L221.508 57.4882L220.429 56.4984L221.893 56.5065L222.501 55.1741L222.946 56.5693ZM237.563 57.4408L239.018 57.6068L237.829 58.4614L238.12 59.8963L236.94 59.0296L235.666 59.75L236.125 58.3598L235.046 57.37L236.511 57.3781L237.118 56.0466L237.563 57.4408ZM230.446 53.8751L231.899 54.041L230.71 54.8956L231.002 56.3305L229.823 55.4639L228.548 56.1842L229.007 54.7941L227.929 53.8043L229.393 53.8124L230 52.4809L230.446 53.8751Z" fill="#FFFF00"/>
</g>
</g>
<path d="M257.882 74.3085L258.79 59.0738L268.342 59.6433L268.224 61.622L260.971 61.1895L260.694 65.8314L267.448 66.2341L267.331 68.2054L260.576 67.8027L260.298 72.4668L267.64 72.9046L267.522 74.8833L257.882 74.3085ZM270.325 75.0504L271.006 63.6244L275.745 63.9069C277.034 63.9838 278.039 64.32 278.76 64.9154C279.482 65.5058 279.814 66.2697 279.759 67.207C279.719 67.8765 279.474 68.3944 279.024 68.7608C278.574 69.1271 277.993 69.3562 277.281 69.4482C277.788 69.5381 278.248 69.7198 278.659 69.9932C279.071 70.2616 279.394 70.6093 279.627 71.0363C279.866 71.4636 279.968 71.9624 279.934 72.5327C279.898 73.1378 279.709 73.664 279.369 74.1116C279.029 74.5541 278.554 74.8891 277.943 75.1165C277.338 75.3392 276.618 75.4257 275.785 75.376L270.325 75.0504ZM272.526 73.3154L275.896 73.5163C276.447 73.5491 276.886 73.4434 277.214 73.1992C277.542 72.955 277.72 72.6072 277.746 72.156C277.778 71.6253 277.647 71.1994 277.352 70.8783C277.058 70.5522 276.636 70.3727 276.085 70.3399L272.716 70.139L272.526 73.3154ZM272.813 68.5099L275.483 68.6691C275.9 68.6939 276.261 68.6557 276.565 68.5544C276.875 68.4535 277.115 68.2986 277.287 68.0899C277.464 67.8764 277.562 67.6185 277.58 67.316C277.606 66.8746 277.445 66.5191 277.098 66.2496C276.751 65.9801 276.262 65.8265 275.633 65.7889L272.984 65.631L272.813 68.5099ZM281.935 80.0426L282.871 64.3318L285.043 64.4614L284.933 66.3136L285.119 66.3247C285.262 66.0944 285.464 65.8302 285.726 65.5323C285.988 65.2343 286.341 64.9817 286.787 64.7743C287.232 64.562 287.81 64.477 288.519 64.5193C289.441 64.5743 290.251 64.8564 290.947 65.3658C291.643 65.8751 292.171 66.581 292.53 67.4833C292.894 68.3859 293.04 69.4546 292.966 70.6895C292.892 71.9243 292.623 72.9708 292.159 73.829C291.695 74.6823 291.09 75.3255 290.342 75.7587C289.595 76.187 288.76 76.3736 287.838 76.3186C287.143 76.2772 286.582 76.1268 286.155 75.8674C285.732 75.6083 285.407 75.3151 285.177 74.9879C284.948 74.6607 284.774 74.3716 284.654 74.1206L284.52 74.1126L284.159 80.1753L281.935 80.0426ZM284.71 70.1748C284.662 70.9782 284.737 71.6894 284.934 72.3083C285.131 72.9272 285.44 73.4209 285.861 73.7894C286.282 74.153 286.813 74.3538 287.452 74.392C288.117 74.4316 288.683 74.2887 289.15 73.9632C289.618 73.6327 289.984 73.1693 290.248 72.5729C290.518 71.9768 290.675 71.2969 290.721 70.5332C290.766 69.7794 290.692 69.0957 290.5 68.482C290.312 67.8686 290.003 67.3749 289.573 67.0009C289.147 66.6271 288.6 66.4203 287.93 66.3804C287.285 66.3419 286.73 66.4755 286.264 66.7812C285.803 67.0871 285.44 67.5309 285.177 68.1124C284.913 68.6939 284.758 69.3813 284.71 70.1748ZM299.918 77.0463C298.847 76.9825 297.926 76.6813 297.157 76.1427C296.388 75.6041 295.809 74.8803 295.42 73.9712C295.032 73.0622 294.873 72.0175 294.943 70.8372C295.014 69.652 295.296 68.6286 295.79 67.7673C296.285 66.9059 296.946 66.2535 297.773 65.8102C298.601 65.3668 299.551 65.1771 300.622 65.2409C301.693 65.3048 302.613 65.606 303.382 66.1446C304.151 66.6832 304.73 67.4095 305.119 68.3235C305.507 69.2375 305.666 70.2871 305.595 71.4724C305.525 72.6527 305.243 73.671 304.749 74.5275C304.255 75.3839 303.594 76.0338 302.766 76.4771C301.938 76.9205 300.989 77.1102 299.918 77.0463ZM300.037 75.1796C300.731 75.221 301.317 75.0719 301.795 74.7321C302.273 74.3923 302.64 73.9239 302.894 73.327C303.154 72.7303 303.305 72.065 303.349 71.331C303.393 70.602 303.321 69.9258 303.134 69.3025C302.953 68.6746 302.645 68.161 302.211 67.7619C301.777 67.3627 301.213 67.1425 300.518 67.1011C299.819 67.0594 299.228 67.2108 298.744 67.5552C298.266 67.8999 297.897 68.3731 297.637 68.9748C297.382 69.5717 297.233 70.2347 297.19 70.9637C297.146 71.6977 297.215 72.3762 297.397 72.9992C297.584 73.6225 297.894 74.1312 298.329 74.5254C298.768 74.9199 299.337 75.138 300.037 75.1796Z" fill="#F2814E"/>
</g>
<g filter="url(#filter3_d_1992_8190)">
<rect x="-24" y="43.9834" width="229.771" height="57.596" rx="14.3482" transform="rotate(-3.83528 -24 43.9834)" fill="white"/>
<rect x="-23.0453" y="44.8182" width="227.978" height="55.8024" rx="13.4515" transform="rotate(-3.83528 -23.0453 44.8182)" stroke="#F2814E" stroke-width="1.79353"/>
<g clip-path="url(#clip5_1992_8190)">
<g clip-path="url(#clip6_1992_8190)">
<rect x="-8.61719" y="57.333" width="29.7014" height="28.8995" rx="2.70013" transform="rotate(-3.83528 -8.61719 57.333)" fill="#1A47B8"/>
<path fill-rule="evenodd" clip-rule="evenodd" d="M-7.32812 76.5557L22.3068 74.569L22.9511 84.1806L-6.68378 86.1672L-7.32812 76.5557Z" fill="#F93939"/>
<path fill-rule="evenodd" clip-rule="evenodd" d="M-8.61719 57.333L21.0177 55.3463L21.6621 64.9579L-7.97284 66.9446L-8.61719 57.333Z" fill="white"/>
</g>
</g>
<path d="M32.0244 76.106L31.152 63.0914L35.791 62.7804C36.8035 62.7125 37.6547 62.8406 38.3445 63.1645C39.0344 63.4885 39.566 63.9593 39.9393 64.5769C40.3124 65.1902 40.5256 65.8951 40.579 66.6916C40.6327 67.4923 40.5136 68.2237 40.2218 68.8859C39.934 69.5435 39.4678 70.0812 38.8235 70.4988C38.183 70.912 37.3587 71.1524 36.3504 71.22L33.1603 71.4339L33.0486 69.7689L36.0608 69.567C36.7005 69.5241 37.2121 69.3791 37.5956 69.1321C37.9788 68.8809 38.2507 68.5563 38.4112 68.1583C38.5718 67.7602 38.6356 67.3155 38.6026 66.8241C38.5697 66.3326 38.4472 65.9025 38.2353 65.5337C38.0233 65.1649 37.7088 64.886 37.2919 64.6969C36.8792 64.5075 36.3466 64.4347 35.6942 64.4785L33.2285 64.6438L33.9881 75.9744L32.0244 76.106ZM47.321 75.2785C46.4059 75.3398 45.5932 75.1836 44.883 74.8099C44.1728 74.4362 43.6039 73.885 43.1763 73.1562C42.7487 72.4273 42.5011 71.5588 42.4335 70.5505C42.3656 69.5379 42.4948 68.6399 42.821 67.8562C43.1472 67.0726 43.6373 66.4482 44.2913 65.9831C44.9453 65.518 45.7298 65.2547 46.6449 65.1934C47.56 65.132 48.3726 65.2882 49.0828 65.6619C49.793 66.0356 50.3621 66.589 50.79 67.322C51.2178 68.0551 51.4657 68.9279 51.5336 69.9404C51.6012 70.9487 51.4718 71.8425 51.1453 72.6219C50.8188 73.4013 50.3285 74.0236 49.6746 74.4887C49.0206 74.9539 48.2361 75.2171 47.321 75.2785ZM47.2204 73.683C47.8135 73.6432 48.2944 73.4535 48.6632 73.1139C49.0319 72.7742 49.292 72.3376 49.4435 71.804C49.5992 71.2702 49.6561 70.6897 49.614 70.0627C49.5723 69.4399 49.4386 68.8744 49.213 68.3661C48.9914 67.8533 48.6751 67.451 48.264 67.1594C47.8529 66.8678 47.3509 66.7419 46.7577 66.7816C46.1604 66.8217 45.6754 67.0138 45.3027 67.3579C44.9342 67.7018 44.6723 68.1428 44.5168 68.6809C44.3654 69.2145 44.3105 69.7927 44.3522 70.4155C44.3943 71.0425 44.526 71.6103 44.7473 72.1189C44.9729 72.6272 45.2911 73.025 45.7018 73.3124C46.1169 73.5995 46.623 73.723 47.2204 73.683ZM58.1035 74.5556C57.1587 74.6189 56.331 74.4595 55.6202 74.0774C54.9134 73.6907 54.3524 73.1304 53.9372 72.3965C53.522 71.6625 53.2817 70.8063 53.216 69.8276C53.1496 68.8363 53.2773 67.9489 53.5993 67.1656C53.921 66.378 54.4064 65.7476 55.0556 65.2742C55.7048 64.8009 56.489 64.5334 57.4083 64.4718C58.1497 64.4221 58.8199 64.5155 59.4187 64.7519C60.0173 64.9842 60.511 65.3341 60.8998 65.8017C61.2929 66.269 61.5453 66.8287 61.6571 67.4808L59.8079 67.6048C59.6755 67.154 59.4161 66.7757 59.0296 66.4696C58.6473 66.1633 58.1533 66.0305 57.5475 66.0711C57.0179 66.1066 56.5634 66.2775 56.1839 66.5838C55.8083 66.8856 55.5276 67.3002 55.3417 67.8276C55.1555 68.3507 55.0856 68.9597 55.1322 69.6545C55.1799 70.3662 55.3291 70.9733 55.5799 71.4757C55.8306 71.978 56.1624 72.3579 56.5755 72.6154C56.9927 72.8725 57.4704 72.9831 58.0084 72.947C58.3685 72.9228 58.6903 72.8353 58.9739 72.6844C59.2613 72.5289 59.4962 72.3196 59.6786 72.0563C59.8652 71.7927 59.987 71.4824 60.0439 71.1253L61.8931 71.0014C61.8677 71.6371 61.7 72.2144 61.39 72.7331C61.0801 73.2517 60.6466 73.6723 60.0894 73.9948C59.5365 74.317 58.8745 74.5039 58.1035 74.5556ZM68.2569 73.8749C67.3121 73.9383 66.4844 73.7789 65.7736 73.3967C65.0668 73.01 64.5058 72.4497 64.0906 71.7158C63.6754 70.9819 63.4351 70.1256 63.3694 69.147C63.303 68.1556 63.4307 67.2683 63.7527 66.4849C64.0744 65.6974 64.5598 65.0669 65.209 64.5936C65.8582 64.1202 66.6424 63.8528 67.5617 63.7911C68.3031 63.7414 68.9733 63.8348 69.5721 64.0713C70.1707 64.3035 70.6644 64.6534 71.0532 65.121C71.4463 65.5883 71.6987 66.148 71.8105 66.8001L69.9613 66.9241C69.8289 66.4734 69.5695 66.095 69.183 65.789C68.8007 65.4827 68.3067 65.3498 67.7009 65.3904C67.1713 65.4259 66.7168 65.5968 66.3373 65.9031C65.9617 66.2049 65.681 66.6195 65.4951 67.1469C65.3089 67.6701 65.239 68.279 65.2856 68.9738C65.3333 69.6856 65.4825 70.2926 65.7333 70.795C65.984 71.2974 66.3158 71.6773 66.7289 71.9347C67.1461 72.1918 67.6238 72.3024 68.1618 72.2663C68.5219 72.2422 68.8437 72.1546 69.1273 72.0037C69.4147 71.8483 69.6496 71.6389 69.832 71.3756C70.0186 71.112 70.1404 70.8017 70.1973 70.4447L72.0465 70.3207C72.0211 70.9565 71.8534 71.5337 71.5434 72.0524C71.2335 72.5711 70.8 72.9916 70.2428 73.3141C69.6899 73.6363 69.0279 73.8233 68.2569 73.8749ZM75.969 70.4854L79.7953 63.0987L81.8416 62.9615L82.4959 72.7225L80.634 72.8473L80.1577 65.7426L76.3508 73.1345L74.2855 73.2729L73.6312 63.5119L75.4931 63.3871L75.969 70.4854ZM86.734 69.7637L90.5604 62.377L92.6066 62.2398L93.261 72.0008L91.399 72.1256L90.9227 65.021L87.1159 72.4128L85.0506 72.5512L84.3962 62.7902L86.2582 62.6654L86.734 69.7637ZM89.5254 59.127L91.0887 59.0222C91.1367 59.7382 90.9216 60.3378 90.4433 60.8209C89.969 61.2996 89.3018 61.5677 88.4418 61.6254C87.586 61.6827 86.8911 61.5059 86.3572 61.0949C85.8229 60.6796 85.5318 60.114 85.4838 59.398L87.0407 59.2936C87.062 59.6114 87.1741 59.8868 87.377 60.1201C87.5796 60.349 87.9075 60.4483 88.3608 60.418C88.8057 60.3881 89.1153 60.2461 89.2898 59.9918C89.4685 59.7373 89.547 59.449 89.5254 59.127ZM99.9404 71.7509C98.9956 71.8143 98.1679 71.6548 97.4571 71.2727C96.7503 70.886 96.1893 70.3257 95.7741 69.5918C95.3589 68.8579 95.1185 68.0016 95.0529 67.0229C94.9865 66.0316 95.1142 65.1443 95.4362 64.3609C95.7579 63.5733 96.2433 62.9429 96.8925 62.4696C97.5417 61.9962 98.3259 61.7288 99.2452 61.6671C99.9866 61.6174 100.657 61.7108 101.256 61.9473C101.854 62.1795 102.348 62.5294 102.737 62.997C103.13 63.4643 103.382 64.024 103.494 64.6761L101.645 64.8001C101.512 64.3494 101.253 63.971 100.866 63.6649C100.484 63.3586 99.9902 63.2258 99.3844 63.2664C98.8548 63.3019 98.4003 63.4728 98.0208 63.7791C97.6452 64.0809 97.3645 64.4955 97.1786 65.0229C96.9924 65.546 96.9225 66.155 96.9691 66.8498C97.0168 67.5615 97.166 68.1686 97.4167 68.671C97.6675 69.1733 97.9993 69.5533 98.4124 69.8107C98.8296 70.0678 99.3073 70.1784 99.8453 70.1423C100.205 70.1182 100.527 70.0306 100.811 69.8797C101.098 69.7243 101.333 69.5149 101.515 69.2516C101.702 68.988 101.824 68.6777 101.881 68.3206L103.73 68.1967C103.705 68.8325 103.537 69.4097 103.227 69.9284C102.917 70.4471 102.483 70.8676 101.926 71.1901C101.373 71.5123 100.711 71.6992 99.9404 71.7509ZM105.969 71.1489L105.315 61.3879L107.215 61.2605L107.489 65.353L108.404 65.2917L111.352 60.9832L113.703 60.8256L110.24 65.8261L114.402 70.5836L112.044 70.7416L108.84 67.037L107.608 67.1197L107.869 71.0215L105.969 71.1489ZM117.561 67.6971L121.388 60.3104L123.434 60.1732L124.088 69.9342L122.226 70.059L121.75 62.9544L117.943 70.3462L115.878 70.4846L115.223 60.7236L117.085 60.5988L117.561 67.6971ZM128.326 66.9755L132.153 59.5887L134.199 59.4516L134.853 69.2125L132.991 69.3374L132.515 62.2327L128.708 69.6245L126.643 69.763L125.988 60.002L127.85 59.8771L128.326 66.9755ZM131.118 56.3388L132.681 56.234C132.729 56.9499 132.514 57.5495 132.036 58.0327C131.561 58.5113 130.894 58.7794 130.034 58.8371C129.178 58.8945 128.483 58.7176 127.949 58.3066C127.415 57.8913 127.124 57.3257 127.076 56.6097L128.633 56.5053C128.654 56.8231 128.766 57.0986 128.969 57.3318C129.172 57.5608 129.5 57.6601 129.953 57.6297C130.398 57.5999 130.708 57.4578 130.882 57.2035C131.061 56.949 131.139 56.6607 131.118 56.3388ZM142.389 72.3842L141.489 58.9628L143.345 58.8384L143.451 60.4208L143.61 60.4101C143.706 60.1994 143.85 59.9536 144.039 59.6728C144.229 59.392 144.501 59.1396 144.857 58.9158C145.212 58.6877 145.692 58.5534 146.298 58.5128C147.086 58.46 147.802 58.6119 148.448 58.9687C149.093 59.3255 149.616 59.867 150.018 60.5933C150.425 61.3193 150.663 62.2098 150.734 63.2647C150.804 64.3196 150.689 65.2358 150.388 66.0135C150.087 66.787 149.643 67.3976 149.056 67.8455C148.468 68.2892 147.781 68.5374 146.993 68.5902C146.399 68.63 145.908 68.563 145.517 68.3891C145.131 68.215 144.823 68.0016 144.593 67.7489C144.364 67.4962 144.185 67.2699 144.056 67.0699L143.942 67.0776L144.289 72.2568L142.389 72.3842ZM143.679 63.7185C143.725 64.4048 143.864 64.9997 144.098 65.5032C144.332 66.0067 144.647 66.392 145.044 66.6591C145.44 66.9219 145.912 67.0349 146.458 66.9983C147.026 66.9602 147.49 66.778 147.851 66.4517C148.212 66.1211 148.473 65.6887 148.633 65.1546C148.797 64.6201 148.857 64.0267 148.813 63.3743C148.77 62.7303 148.634 62.1585 148.405 61.659C148.18 61.1591 147.864 60.7739 147.459 60.5032C147.058 60.2322 146.571 60.1158 145.999 60.1542C145.449 60.1911 144.992 60.3643 144.63 60.6737C144.272 60.9828 144.012 61.3981 143.852 61.9195C143.691 62.441 143.633 63.0406 143.679 63.7185ZM154.303 71.5855C154.019 71.6045 153.759 71.5985 153.523 71.5676C153.287 71.5408 153.11 71.5059 152.992 71.4627L153.346 69.8751C153.699 69.945 154.011 69.9645 154.281 69.9336C154.552 69.9027 154.784 69.785 154.979 69.5805C155.178 69.3756 155.344 69.0517 155.476 68.6088L155.667 67.9449L151.433 58.2962L153.467 58.1599L156.446 65.5691L156.548 65.5623L158.512 57.8216L160.552 57.6849L157.271 69.0183C157.119 69.5391 156.911 69.9851 156.646 70.356C156.382 70.7312 156.057 71.0211 155.67 71.2257C155.284 71.4303 154.828 71.5503 154.303 71.5855ZM169.625 53.4254L170.493 54.5736C170.219 54.8601 169.899 55.073 169.534 55.2124C169.173 55.3473 168.752 55.4457 168.271 55.5078C167.789 55.5656 167.238 55.6259 166.617 55.6889C165.915 55.7572 165.347 55.9485 164.913 56.2627C164.478 56.5727 164.156 57.0113 163.947 57.5785C163.743 58.1412 163.632 58.8381 163.615 59.669L163.736 59.6609C164.013 59.0338 164.423 58.551 164.967 58.2124C165.514 57.8735 166.142 57.6804 166.849 57.633C167.637 57.5801 168.35 57.7132 168.989 58.0321C169.627 58.351 170.146 58.8461 170.544 59.5173C170.946 60.184 171.181 61.0173 171.248 62.0171C171.315 63.0296 171.188 63.917 170.864 64.6791C170.545 65.441 170.062 66.0458 169.416 66.4934C168.773 66.9365 167.996 67.1886 167.085 67.2496C166.174 67.3107 165.366 67.1585 164.661 66.793C163.959 66.423 163.395 65.8437 162.968 65.0553C162.545 64.2666 162.293 63.2749 162.213 62.0802L162.148 61.1143C161.999 58.8816 162.284 57.1751 163.005 55.9948C163.726 54.8145 164.878 54.1564 166.46 54.0205C166.972 53.9734 167.429 53.9407 167.832 53.9221C168.235 53.8994 168.585 53.8568 168.883 53.7942C169.185 53.7272 169.432 53.6042 169.625 53.4254ZM166.985 65.6542C167.514 65.6187 167.961 65.4547 168.324 65.1622C168.692 64.8652 168.962 64.4619 169.137 63.9523C169.311 63.4428 169.376 62.8512 169.331 62.1775C169.286 61.5166 169.145 60.9623 168.906 60.5144C168.668 60.0665 168.348 59.7348 167.946 59.5191C167.544 59.2993 167.074 59.2074 166.536 59.2434C166.138 59.2701 165.786 59.3639 165.482 59.5247C165.178 59.6813 164.922 59.9006 164.716 60.1825C164.513 60.4642 164.364 60.8019 164.267 61.1957C164.173 61.5849 164.139 62.0277 164.164 62.5239C164.232 63.5322 164.516 64.3195 165.018 64.8859C165.524 65.452 166.18 65.7081 166.985 65.6542ZM172.919 66.6607L172.802 65.0152L173.151 64.9918C173.422 64.9736 173.645 64.9012 173.82 64.7746C173.998 64.6435 174.137 64.4342 174.237 64.1466C174.337 63.859 174.402 63.4674 174.433 62.9717C174.463 62.4718 174.468 61.8459 174.448 61.094L174.329 56.7613L181.142 56.3046L181.796 66.0656L179.934 66.1904L179.39 58.0689L176.2 58.2828L176.27 61.6102C176.285 62.4177 176.25 63.1265 176.163 63.7366C176.081 64.3465 175.934 64.8606 175.724 65.2789C175.513 65.6931 175.228 66.0122 174.869 66.2363C174.509 66.4562 174.062 66.584 173.529 66.6198L172.919 66.6607ZM185.331 59.3942L188.165 59.2042C189.36 59.1241 190.299 59.359 190.982 59.909C191.666 60.4589 192.039 61.202 192.102 62.1383C192.143 62.7484 192.036 63.3066 191.78 63.8132C191.525 64.3197 191.129 64.7335 190.593 65.0545C190.057 65.3713 189.391 65.5564 188.594 65.6098L184.33 65.8957L183.676 56.1347L185.538 56.0099L186.082 64.1313L188.484 63.9703C189.031 63.9336 189.47 63.7616 189.803 63.4542C190.135 63.1425 190.287 62.7643 190.257 62.3195C190.225 61.8492 190.024 61.4776 189.652 61.2046C189.28 60.9274 188.821 60.8071 188.275 60.8437L185.44 61.0337L185.331 59.3942Z" fill="#F2814E"/>
</g>
<defs>
<filter id="filter0_d_1992_8190" x="-15.3065" y="-31.338" width="192.535" height="118.528" filterUnits="userSpaceOnUse" color-interpolation-filters="sRGB">
<feFlood flood-opacity="0" result="BackgroundImageFix"/>
<feColorMatrix in="SourceAlpha" type="matrix" values="0 0 0 0 0 0 0 0 0 0 0 0 0 0 0 0 0 0 127 0" result="hardAlpha"/>
<feOffset dy="0.968477"/>
<feGaussianBlur stdDeviation="10.6532"/>
<feComposite in2="hardAlpha" operator="out"/>
<feColorMatrix type="matrix" values="0 0 0 0 0.647912 0 0 0 0 0.647912 0 0 0 0 0.647912 0 0 0 0.25 0"/>
<feBlend mode="normal" in2="BackgroundImageFix" result="effect1_dropShadow_1992_8190"/>
<feBlend mode="normal" in="SourceGraphic" in2="effect1_dropShadow_1992_8190" result="shape"/>
</filter>
<filter id="filter1_d_1992_8190" x="122.092" y="-30.1193" width="187.199" height="104.832" filterUnits="userSpaceOnUse" color-interpolation-filters="sRGB">
<feFlood flood-opacity="0" result="BackgroundImageFix"/>
<feColorMatrix in="SourceAlpha" type="matrix" values="0 0 0 0 0 0 0 0 0 0 0 0 0 0 0 0 0 0 127 0" result="hardAlpha"/>
<feOffset dy="0.968477"/>
<feGaussianBlur stdDeviation="10.6532"/>
<feComposite in2="hardAlpha" operator="out"/>
<feColorMatrix type="matrix" values="0 0 0 0 0.647912 0 0 0 0 0.647912 0 0 0 0 0.647912 0 0 0 0.25 0"/>
<feBlend mode="normal" in2="BackgroundImageFix" result="effect1_dropShadow_1992_8190"/>
<feBlend mode="normal" in="SourceGraphic" in2="effect1_dropShadow_1992_8190" result="shape"/>
</filter>
<filter id="filter2_d_1992_8190" x="171.018" y="7.56151" width="178.182" height="120.833" filterUnits="userSpaceOnUse" color-interpolation-filters="sRGB">
<feFlood flood-opacity="0" result="BackgroundImageFix"/>
<feColorMatrix in="SourceAlpha" type="matrix" values="0 0 0 0 0 0 0 0 0 0 0 0 0 0 0 0 0 0 127 0" result="hardAlpha"/>
<feOffset dy="1.04925"/>
<feGaussianBlur stdDeviation="11.5417"/>
<feComposite in2="hardAlpha" operator="out"/>
<feColorMatrix type="matrix" values="0 0 0 0 0.647912 0 0 0 0 0.647912 0 0 0 0 0.647912 0 0 0 0.25 0"/>
<feBlend mode="normal" in2="BackgroundImageFix" result="effect1_dropShadow_1992_8190"/>
<feBlend mode="normal" in="SourceGraphic" in2="effect1_dropShadow_1992_8190" result="shape"/>
</filter>
<filter id="filter3_d_1992_8190" x="-43.7288" y="9.78218" width="272.567" height="112.294" filterUnits="userSpaceOnUse" color-interpolation-filters="sRGB">
<feFlood flood-opacity="0" result="BackgroundImageFix"/>
<feColorMatrix in="SourceAlpha" type="matrix" values="0 0 0 0 0 0 0 0 0 0 0 0 0 0 0 0 0 0 127 0" result="hardAlpha"/>
<feOffset dy="0.896766"/>
<feGaussianBlur stdDeviation="9.86442"/>
<feComposite in2="hardAlpha" operator="out"/>
<feColorMatrix type="matrix" values="0 0 0 0 0.647912 0 0 0 0 0.647912 0 0 0 0 0.647912 0 0 0 0.25 0"/>
<feBlend mode="normal" in2="BackgroundImageFix" result="effect1_dropShadow_1992_8190"/>
<feBlend mode="normal" in="SourceGraphic" in2="effect1_dropShadow_1992_8190" result="shape"/>
</filter>
<clipPath id="clip0_1992_8190">
<rect x="22.7734" y="16.9453" width="31.2069" height="31.2069" rx="15.6035" transform="rotate(-5.56091 22.7734 16.9453)" fill="white"/>
</clipPath>
<clipPath id="clip1_1992_8190">
<rect x="22.7734" y="16.9453" width="42.7639" height="31.101" rx="3.88763" transform="rotate(-5.56091 22.7734 16.9453)" fill="white"/>
</clipPath>
<clipPath id="clip2_1992_8190">
<rect x="164.789" y="5.76172" width="31.119" height="31.119" rx="15.5595" fill="white"/>
</clipPath>
<clipPath id="clip3_1992_8190">
<rect x="213.664" y="47.3408" width="33.5759" height="33.5759" rx="16.788" transform="rotate(3.41228 213.664 47.3408)" fill="white"/>
</clipPath>
<clipPath id="clip4_1992_8190">
<rect x="213.664" y="47.3408" width="46.0102" height="33.462" rx="4.18275" transform="rotate(3.41228 213.664 47.3408)" fill="white"/>
</clipPath>
<clipPath id="clip5_1992_8190">
<rect x="-8.61719" y="57.333" width="28.8995" height="28.8995" rx="14.4497" transform="rotate(-3.83528 -8.61719 57.333)" fill="white"/>
</clipPath>
<clipPath id="clip6_1992_8190">
<rect x="-8.61719" y="57.333" width="29.7014" height="28.8995" rx="2.70013" transform="rotate(-3.83528 -8.61719 57.333)" fill="white"/>
</clipPath>
</defs>
</svg>
